<?xml version="1.0" encoding="UTF-8"?>
<!DOCTYPE svg PUBLIC "-//W3C//DTD SVG 1.1//EN" "http://www.w3.org/Graphics/SVG/1.1/DTD/svg11.dtd">
<svg xmlns="http://www.w3.org/2000/svg" version="1.1" width="651px" height="651px" style="shape-rendering:geometricPrecision; text-rendering:geometricPrecision; image-rendering:optimizeQuality; fill-rule:evenodd; clip-rule:evenodd" xmlns:xlink="http://www.w3.org/1999/xlink">
<g><path style="opacity:0.999" fill="#0d0f17" d="M 534.5,480.5 C 534.976,490.997 535.642,501.33 536.5,511.5C 536.607,513.903 535.607,515.736 533.5,517C 509.511,519.368 486.177,516.535 463.5,508.5C 463.846,528.577 460.346,547.911 453,566.5C 451.545,569.912 449.712,573.079 447.5,576C 420.007,573.497 396.174,562.997 376,544.5C 364.462,566.373 347.462,582.373 325,592.5C 302.831,582.831 286.331,567.165 275.5,545.5C 266.578,551.304 257.578,557.138 248.5,563C 234.847,569.121 220.681,573.621 206,576.5C 203.201,576.368 201.201,575.035 200,572.5C 197.265,567.793 195.432,562.793 194.5,557.5C 191.118,541.031 188.784,524.364 187.5,507.5C 186.893,507.624 186.56,507.957 186.5,508.5C 163.85,516.533 140.516,519.366 116.5,517C 115.29,515.961 114.29,514.794 113.5,513.5C 114.343,502.662 115.01,491.662 115.5,480.5C 118.057,458.396 125.391,438.063 137.5,419.5C 141.553,414.781 145.22,409.781 148.5,404.5C 106.048,342.654 96.2145,275.654 119,203.5C 146.734,131.095 197.9,84.5949 272.5,64C 342.527,48.8812 405.86,62.8812 462.5,106C 529.948,165.529 554.782,239.695 537,328.5C 529.717,356.06 517.884,381.394 501.5,404.5C 519.848,426.51 530.848,451.843 534.5,480.5 Z M 242.5,86.5 C 240.833,88.5 239.167,90.5 237.5,92.5C 235.238,91.6551 234.571,90.3217 235.5,88.5C 237.833,87.8333 240.167,87.1667 242.5,86.5 Z M 319.5,140.5 C 340.977,141.477 349.477,152.477 345,173.5C 335.356,187.778 323.189,190.278 308.5,181C 297.675,167.767 298.675,155.434 311.5,144C 314.309,142.907 316.976,141.74 319.5,140.5 Z"/></g>
<g><path style="opacity:1" fill="#303342" d="M 532.5,288.5 C 519.342,339.479 491.675,380.645 449.5,412C 444.276,415.441 438.943,418.608 433.5,421.5C 446.871,374.482 436.538,333.649 402.5,299C 385.847,284.552 366.513,275.885 344.5,273C 331.15,272.111 317.817,271.111 304.5,270C 261.265,261.466 233.765,235.966 222,193.5C 212.624,152.813 223.124,118.313 253.5,90C 270.414,77.3807 289.414,70.0474 310.5,68C 400.381,65.8396 467.214,103.673 511,181.5C 528.105,215.194 535.272,250.861 532.5,288.5 Z M 319.5,140.5 C 316.976,141.74 314.309,142.907 311.5,144C 298.675,155.434 297.675,167.767 308.5,181C 323.189,190.278 335.356,187.778 345,173.5C 349.477,152.477 340.977,141.477 319.5,140.5 Z"/></g>
<g><path style="opacity:1" fill="#4e5367" d="M 322.5,77.5 C 374.996,78.1563 420.162,96.4896 458,132.5C 462.161,137.486 465.827,142.819 469,148.5C 470.697,153.128 470.864,157.795 469.5,162.5C 466.018,164.934 462.351,165.101 458.5,163C 444.667,154.918 431,146.584 417.5,138C 386.263,120.809 353.263,108.142 318.5,100C 312.959,98.315 308.126,95.4817 304,91.5C 303.266,85.2118 306.099,81.3785 312.5,80C 315.952,79.1153 319.286,78.282 322.5,77.5 Z"/></g>
<g><path style="opacity:0.031" fill="#69686d" d="M 235.5,88.5 C 234.571,90.3217 235.238,91.6551 237.5,92.5C 237.672,93.4916 237.338,94.1583 236.5,94.5C 235.147,92.2621 233.147,90.9287 230.5,90.5C 231.78,89.0687 233.447,88.4021 235.5,88.5 Z"/></g>
<g><path style="opacity:1" fill="#fefefe" d="M 230.5,90.5 C 233.147,90.9287 235.147,92.2621 236.5,94.5C 209.284,129.176 203.117,167.509 218,209.5C 235.287,251.244 266.453,274.744 311.5,280C 336.686,277.954 360.353,282.954 382.5,295C 419.046,320.614 434.546,355.781 429,400.5C 427.665,411.201 424.499,421.201 419.5,430.5C 367.701,454.102 314.367,457.936 259.5,442C 185.556,414.892 138.223,363.392 117.5,287.5C 115.069,206.523 147.402,143.69 214.5,99C 219.729,95.8867 225.062,93.0534 230.5,90.5 Z"/></g>
<g><path style="opacity:0.999" fill="#0c0c17" d="M 318.5,130.5 C 337.116,129.721 349.616,138.054 356,155.5C 358.488,175.997 349.988,189.497 330.5,196C 302.642,196.808 289.809,183.308 292,155.5C 296.522,142.475 305.356,134.141 318.5,130.5 Z M 319.5,140.5 C 316.976,141.74 314.309,142.907 311.5,144C 298.675,155.434 297.675,167.767 308.5,181C 323.189,190.278 335.356,187.778 345,173.5C 349.477,152.477 340.977,141.477 319.5,140.5 Z"/></g>
<g><path style="opacity:1" fill="#1c202b" d="M 532.5,288.5 C 526.15,363.412 490.817,419.912 426.5,458C 418.183,462.834 409.517,466.501 400.5,469C 416.093,456.3 427.093,440.467 433.5,421.5C 438.943,418.608 444.276,415.441 449.5,412C 491.675,380.645 519.342,339.479 532.5,288.5 Z"/></g>
<g><path style="opacity:1" fill="#d4d5d7" d="M 117.5,287.5 C 138.223,363.392 185.556,414.892 259.5,442C 314.367,457.936 367.701,454.102 419.5,430.5C 408.746,452.75 391.746,468.25 368.5,477C 334.128,487.087 299.794,486.753 265.5,476C 186.486,449.128 137.986,394.961 120,313.5C 118.555,304.886 117.721,296.219 117.5,287.5 Z"/></g>
<g><path style="opacity:1" fill="#0e0e18" d="M 315.5,349.5 C 333.918,346.955 347.084,353.955 355,370.5C 359.125,400.769 345.958,415.269 315.5,414C 296.737,406.987 288.904,393.487 292,373.5C 296.018,361.65 303.851,353.65 315.5,349.5 Z"/></g>
<g><path style="opacity:1" fill="#303342" d="M 319.5,357.5 C 339.755,358.016 348.922,368.349 347,388.5C 339.929,404.641 328.095,409.475 311.5,403C 298.295,392.77 296.129,380.603 305,366.5C 309.053,362.066 313.886,359.066 319.5,357.5 Z"/></g>
<g><path style="opacity:1" fill="#139e4c" d="M 504.5,507.5 C 510.167,507.5 515.833,507.5 521.5,507.5C 517.864,484.897 509.197,464.563 495.5,446.5C 486.098,461.235 473.764,472.901 458.5,481.5C 459.374,483.747 459.708,486.08 459.5,488.5C 456.829,476.66 453.662,464.993 450,453.5C 466.236,441.433 481.07,427.767 494.5,412.5C 517.643,440.168 528.31,472.168 526.5,508.5C 518.981,508.825 511.648,508.492 504.5,507.5 Z"/></g>
<g><path style="opacity:1" fill="#22d76a" d="M 150.5,419.5 C 157.018,429.888 163.852,440.221 171,450.5C 176.649,456.983 182.483,463.317 188.5,469.5C 172.704,481.73 155.037,490.23 135.5,495C 131.812,495.45 128.146,495.283 124.5,494.5C 124.5,490.5 124.5,486.5 124.5,482.5C 127.337,458.964 136.003,437.964 150.5,419.5 Z"/></g>
<g><path style="opacity:1" fill="#69fda5" d="M 148.5,436.5 C 153.675,435.507 155.509,437.507 154,442.5C 148.546,454.196 143.879,466.196 140,478.5C 136.716,483.968 134.049,483.634 132,477.5C 131.339,472.442 131.672,467.442 133,462.5C 135.501,452.06 140.668,443.394 148.5,436.5 Z"/></g>
<g><path style="opacity:1" fill="#21d76a" d="M 504.5,507.5 C 489.593,506.627 475.26,503.293 461.5,497.5C 460.322,494.609 459.655,491.609 459.5,488.5C 459.708,486.08 459.374,483.747 458.5,481.5C 473.764,472.901 486.098,461.235 495.5,446.5C 509.197,464.563 517.864,484.897 521.5,507.5C 515.833,507.5 510.167,507.5 504.5,507.5 Z"/></g>
<g><path style="opacity:1" fill="#139e4b" d="M 260.5,506.5 C 251.941,504.926 243.607,502.426 235.5,499C 223.664,493.585 212.331,487.419 201.5,480.5C 203.421,473.897 205.254,467.231 207,460.5C 207.561,459.978 208.228,459.645 209,459.5C 223.543,468.855 239.043,476.188 255.5,481.5C 257.039,489.863 258.706,498.197 260.5,506.5 Z"/></g>
<g><path style="opacity:1" fill="#139e4b" d="M 411.5,556.5 C 413.199,556.66 414.866,556.494 416.5,556C 435.531,538.312 442.031,517.145 436,492.5C 420.898,498.648 405.398,503.315 389.5,506.5C 391.11,497.892 393.11,489.392 395.5,481C 410.957,475.604 425.624,468.604 439.5,460C 440.784,459.316 441.951,459.483 443,460.5C 447.011,472.239 450.011,484.239 452,496.5C 455.222,520.142 452.056,542.809 442.5,564.5C 441.5,564.833 440.5,565.167 439.5,565.5C 433.427,564.297 427.427,562.797 421.5,561C 417.939,559.768 414.606,558.268 411.5,556.5 Z"/></g>
<g><path style="opacity:1" fill="#139e4c" d="M 124.5,482.5 C 124.5,486.5 124.5,490.5 124.5,494.5C 128.146,495.283 131.812,495.45 135.5,495C 155.037,490.23 172.704,481.73 188.5,469.5C 182.483,463.317 176.649,456.983 171,450.5C 163.852,440.221 157.018,429.888 150.5,419.5C 151.072,417.745 151.906,416.078 153,414.5C 153.837,412.993 155.004,412.493 156.5,413C 169.443,428.28 183.943,441.78 200,453.5C 195.803,466.784 192.469,480.451 190,494.5C 189.691,495.766 189.191,496.933 188.5,498C 167.402,504.99 145.735,508.49 123.5,508.5C 123.174,499.651 123.507,490.984 124.5,482.5 Z"/></g>
<g><path style="opacity:1" fill="#69fda5" d="M 464.5,482.5 C 466.857,482.337 469.19,482.503 471.5,483C 484.059,486.759 496.725,490.093 509.5,493C 512.167,495 512.167,497 509.5,499C 506.626,500.899 503.459,501.733 500,501.5C 493.066,500.928 486.233,499.761 479.5,498C 474.468,496.402 469.968,493.902 466,490.5C 464.748,487.986 464.248,485.32 464.5,482.5 Z"/></g>
<g><path style="opacity:0.318" fill="#193e2e" d="M 115.5,480.5 C 115.01,491.662 114.343,502.662 113.5,513.5C 113.334,504.494 113.5,495.494 114,486.5C 114.191,484.292 114.691,482.292 115.5,480.5 Z"/></g>
<g><path style="opacity:1" fill="#139e4b" d="M 300.5,563.5 C 301.695,563.678 302.862,564.011 304,564.5C 328.432,556.598 341.598,539.931 343.5,514.5C 319.678,515.37 296.012,514.037 272.5,510.5C 271.702,510.957 271.369,511.624 271.5,512.5C 268.386,503.467 266.053,494.134 264.5,484.5C 304.836,495.117 345.17,495.117 385.5,484.5C 381.245,516.806 367.912,544.64 345.5,568C 339.141,573.512 332.141,578.012 324.5,581.5C 315.069,577.401 307.069,571.401 300.5,563.5 Z"/></g>
<g><path style="opacity:1" fill="#22d76a" d="M 201.5,480.5 C 212.331,487.419 223.664,493.585 235.5,499C 243.607,502.426 251.941,504.926 260.5,506.5C 260.5,506.833 260.5,507.167 260.5,507.5C 260.736,510.226 259.903,512.559 258,514.5C 243.146,531.68 224.98,544.013 203.5,551.5C 203.715,549.821 203.048,548.821 201.5,548.5C 198.108,537.617 196.775,526.45 197.5,515C 196.786,503.121 198.12,491.621 201.5,480.5 Z"/></g>
<g><path style="opacity:1" fill="#6afda5" d="M 206.5,492.5 C 208.5,492.5 210.5,492.5 212.5,492.5C 211.456,507.149 210.623,521.816 210,536.5C 209.176,540.665 207.009,541.498 203.5,539C 200.081,532.625 198.748,525.792 199.5,518.5C 198.307,508.764 200.64,500.098 206.5,492.5 Z"/></g>
<g><path style="opacity:1" fill="#22d76a" d="M 411.5,556.5 C 399.463,551.149 388.796,543.816 379.5,534.5C 380.136,532.22 381.136,530.22 382.5,528.5C 384.22,531.731 386.553,534.564 389.5,537C 395.735,542.118 402.735,545.618 410.5,547.5C 413.472,547.844 415.806,546.844 417.5,544.5C 415.785,542.126 413.785,539.96 411.5,538C 402.432,532.431 394.099,525.931 386.5,518.5C 386.878,514.322 387.878,510.322 389.5,506.5C 405.398,503.315 420.898,498.648 436,492.5C 442.031,517.145 435.531,538.312 416.5,556C 414.866,556.494 413.199,556.66 411.5,556.5 Z"/></g>
<g><path style="opacity:0.094" fill="#173c2a" d="M 534.5,480.5 C 535.309,482.292 535.809,484.292 536,486.5C 536.5,494.827 536.666,503.16 536.5,511.5C 535.642,501.33 534.976,490.997 534.5,480.5 Z"/></g>
<g><path style="opacity:1" fill="#22d76a" d="M 300.5,563.5 C 286.48,549.145 276.814,532.145 271.5,512.5C 271.369,511.624 271.702,510.957 272.5,510.5C 296.012,514.037 319.678,515.37 343.5,514.5C 341.598,539.931 328.432,556.598 304,564.5C 302.862,564.011 301.695,563.678 300.5,563.5 Z"/></g>
<g><path style="opacity:1" fill="#6afda5" d="M 281.5,513.5 C 283.903,513.393 285.736,514.393 287,516.5C 292.919,527.344 299.586,537.677 307,547.5C 309.921,555.42 307.421,557.587 299.5,554C 290.394,546.289 283.894,536.789 280,525.5C 279.081,521.269 279.581,517.269 281.5,513.5 Z"/></g>
<g><path style="opacity:1" fill="#139e4b" d="M 260.5,507.5 C 263.496,516.516 266.829,525.516 270.5,534.5C 252.904,551.799 231.904,561.799 207.5,564.5C 204.924,559.354 202.924,554.021 201.5,548.5C 203.048,548.821 203.715,549.821 203.5,551.5C 224.98,544.013 243.146,531.68 258,514.5C 259.903,512.559 260.736,510.226 260.5,507.5 Z"/></g>
<g><path style="opacity:1" fill="#6afca5" d="M 386.5,518.5 C 394.099,525.931 402.432,532.431 411.5,538C 413.785,539.96 415.785,542.126 417.5,544.5C 415.806,546.844 413.472,547.844 410.5,547.5C 402.735,545.618 395.735,542.118 389.5,537C 386.553,534.564 384.22,531.731 382.5,528.5C 383.263,524.863 384.597,521.53 386.5,518.5 Z"/></g>
<g><path style="opacity:0.914" fill="#162e22" d="M 186.5,508.5 C 186.56,507.957 186.893,507.624 187.5,507.5C 188.784,524.364 191.118,541.031 194.5,557.5C 192.113,551.449 190.28,545.115 189,538.5C 188.216,528.341 187.382,518.341 186.5,508.5 Z"/></g>
</svg>
